<svg width="29" height="28" viewBox="0 0 29 28" fill="none" xmlns="http://www.w3.org/2000/svg">
<path d="M25.25 2.33334H11.25C10.9406 2.33334 10.6439 2.45626 10.4251 2.67505C10.2063 2.89384 10.0834 3.19059 10.0834 3.50001V8.16668H7.75004C7.44062 8.16668 7.14388 8.28959 6.92508 8.50839C6.70629 8.72718 6.58337 9.02392 6.58337 9.33334V14H4.25004C3.94062 14 3.64388 14.1229 3.42508 14.3417C3.20629 14.5605 3.08337 14.8573 3.08337 15.1667V24.5C3.08337 24.8094 3.20629 25.1062 3.42508 25.325C3.64388 25.5438 3.94062 25.6667 4.25004 25.6667H13.5834C13.8928 25.6667 14.1895 25.5438 14.4083 25.325C14.6271 25.1062 14.75 24.8094 14.75 24.5V22.1667H19.4167C19.7261 22.1667 20.0229 22.0438 20.2417 21.825C20.4605 21.6062 20.5834 21.3094 20.5834 21V18.6667H25.25C25.5595 18.6667 25.8562 18.5438 26.075 18.325C26.2938 18.1062 26.4167 17.8094 26.4167 17.5V3.50001C26.4167 3.19059 26.2938 2.89384 26.075 2.67505C25.8562 2.45626 25.5595 2.33334 25.25 2.33334ZM12.4167 23.3333H5.41671V16.3333H12.4167V23.3333ZM18.25 19.8333H14.75V15.1667C14.75 14.8573 14.6271 14.5605 14.4083 14.3417C14.1895 14.1229 13.8928 14 13.5834 14H8.91671V10.5H18.25V19.8333ZM24.0834 16.3333H20.5834V9.33334C20.5834 9.02392 20.4605 8.72718 20.2417 8.50839C20.0229 8.28959 19.7261 8.16668 19.4167 8.16668H12.4167V4.66668H24.0834V16.3333Z" fill="#757575"/>
</svg>
